{
  "accessors": [
    {
      "bufferView": 2,
      "componentType": 5126,
      "count": 12000,
      "max": [0.4569079875946045, -0.13285300135612488, 0.02814199961721897],
      "min": [0.4211120009422302, -0.1853650063276291, -0.07818000018596649],
      "type": "VEC3"
    },
    {
      "bufferView": 2,
      "byteOffset": 144000,
      "componentType": 5126,
      "count": 12000,
      "max": [0.9999516010284424, 1.0, 0.999983012676239],
      "min": [-0.9999728798866272, -1.0, -0.9999857544898987],
      "type": "VEC3"
    },
    {
      "bufferView": 3,
      "componentType": 5126,
      "count": 12000,
      "max": [0.9991042613983154, 0.990006148815155, 0.9998860955238342, 1.0],
      "min": [
        -0.9999482035636902, -0.8018094301223755, -0.9999958872795105, 1.0
      ],
      "type": "VEC4"
    },
    {
      "bufferView": 1,
      "componentType": 5126,
      "count": 12000,
      "max": [0.9916239976882935, 0.9960939884185791],
      "min": [0.0039059999398887157, 0.0039059999398887157],
      "type": "VEC2"
    },
    {
      "bufferView": 0,
      "componentType": 5125,
      "count": 12000,
      "type": "SCALAR"
    },
    {
      "bufferView": 2,
      "byteOffset": 288000,
      "componentType": 5126,
      "count": 6365,
      "max": [0.20587000250816345, -0.0998930037021637, -0.016096999868750572],
      "min": [0.08162599802017212, -0.18525399267673492, -0.11337999999523163],
      "type": "VEC3"
    },
    {
      "bufferView": 2,
      "byteOffset": 364380,
      "componentType": 5126,
      "count": 6365,
      "max": [0.9997984766960144, 0.9998432397842407, 0.9996516704559326],
      "min": [-0.9984273314476013, -1.0, -0.9998570084571838],
      "type": "VEC3"
    },
    {
      "bufferView": 3,
      "byteOffset": 192000,
      "componentType": 5126,
      "count": 6365,
      "max": [0.99940425157547, 0.9989756345748901, 0.9999174475669861, 1.0],
      "min": [
        -0.9994401931762695, -0.9974840879440308, -0.9995201230049133, -1.0
      ],
      "type": "VEC4"
    },
    {
      "bufferView": 1,
      "byteOffset": 96000,
      "componentType": 5126,
      "count": 6365,
      "max": [0.9911730289459229, 0.9960939884185791],
      "min": [0.0039059999398887157, 0.0039059999398887157],
      "type": "VEC2"
    },
    {
      "bufferView": 0,
      "byteOffset": 48000,
      "componentType": 5125,
      "count": 8700,
      "type": "SCALAR"
    },
    {
      "bufferView": 2,
      "byteOffset": 440760,
      "componentType": 5126,
      "count": 5670,
      "max": [-0.19998599588871002, -0.12090999633073807, -0.5569819808006287],
      "min": [-0.25740501284599304, -0.18445700407028198, -0.6144070029258728],
      "type": "VEC3"
    },
    {
      "bufferView": 2,
      "byteOffset": 508800,
      "componentType": 5126,
      "count": 5670,
      "max": [0.9999196529388428, 0.9999973773956299, 0.9999295473098755],
      "min": [-0.9999272227287292, -0.9999993443489075, -0.999980092048645],
      "type": "VEC3"
    },
    {
      "bufferView": 3,
      "byteOffset": 293840,
      "componentType": 5126,
      "count": 5670,
      "max": [0.9999943971633911, 0.9986477494239807, 0.9975186586380005, 1.0],
      "min": [
        -0.9992973804473877, -0.9992082118988037, -0.9975847005844116, 1.0
      ],
      "type": "VEC4"
    },
    {
      "bufferView": 1,
      "byteOffset": 146920,
      "componentType": 5126,
      "count": 5670,
      "max": [0.996051013469696, 0.9960939884185791],
      "min": [0.0039059999398887157, 0.0039059999398887157],
      "type": "VEC2"
    },
    {
      "bufferView": 0,
      "byteOffset": 82800,
      "componentType": 5125,
      "count": 5670,
      "type": "SCALAR"
    },
    {
      "bufferView": 2,
      "byteOffset": 576840,
      "componentType": 5126,
      "count": 14082,
      "max": [-0.21126599609851837, -0.10559500008821487, -0.7125639915466309],
      "min": [-0.38077300786972046, -0.18563500046730042, -0.9001910090446472],
      "type": "VEC3"
    },
    {
      "bufferView": 2,
      "byteOffset": 745824,
      "componentType": 5126,
      "count": 14082,
      "max": [0.998957633972168, 1.0, 0.9986896514892578],
      "min": [-0.9999380111694336, -1.0, -0.9993326663970947],
      "type": "VEC3"
    },
    {
      "bufferView": 3,
      "byteOffset": 384560,
      "componentType": 5126,
      "count": 14082,
      "max": [0.9999999403953552, 0.9999915957450867, 0.9991706609725952, 1.0],
      "min": [
        -0.9999760389328003, -0.9998900294303894, -0.9998712539672852, 1.0
      ],
      "type": "VEC4"
    },
    {
      "bufferView": 1,
      "byteOffset": 192280,
      "componentType": 5126,
      "count": 14082,
      "max": [0.9941220283508301, 0.9960939884185791],
      "min": [0.0039059999398887157, 0.0039059999398887157],
      "type": "VEC2"
    },
    {
      "bufferView": 0,
      "byteOffset": 105480,
      "componentType": 5125,
      "count": 14370,
      "type": "SCALAR"
    },
    {
      "bufferView": 2,
      "byteOffset": 914808,
      "componentType": 5126,
      "count": 9348,
      "max": [-0.08533699810504913, 0.46618199348449707, 0.5782529711723328],
      "min": [-0.5010870099067688, -0.18758299946784973, -0.5548139810562134],
      "type": "VEC3"
    },
    {
      "bufferView": 2,
      "byteOffset": 1026984,
      "componentType": 5126,
      "count": 9348,
      "max": [1.0, 1.0, 1.0],
      "min": [-1.0, -1.0, -1.0],
      "type": "VEC3"
    },
    {
      "bufferView": 3,
      "byteOffset": 609872,
      "componentType": 5126,
      "count": 9348,
      "max": [1.0, 1.0, 0.8513186573982239, 1.0],
      "min": [-0.666582465171814, -0.6695041060447693, -1.0, 1.0],
      "type": "VEC4"
    },
    {
      "bufferView": 1,
      "byteOffset": 304936,
      "componentType": 5126,
      "count": 9348,
      "max": [0.9960939884185791, 0.9939879775047302],
      "min": [0.0039059999398887157, 0.0039059999398887157],
      "type": "VEC2"
    },
    {
      "bufferView": 0,
      "byteOffset": 162960,
      "componentType": 5125,
      "count": 21084,
      "type": "SCALAR"
    },
    {
      "bufferView": 2,
      "byteOffset": 1139160,
      "componentType": 5126,
      "count": 6644,
      "max": [0.6453070044517517, 0.25527599453926086, 0.42513400316238403],
      "min": [-0.1892089992761612, -0.1862960010766983, 0.05415099859237671],
      "type": "VEC3"
    },
    {
      "bufferView": 2,
      "byteOffset": 1218888,
      "componentType": 5126,
      "count": 6644,
      "max": [1.0, 1.0, 1.0],
      "min": [-1.0, -1.0, -1.0],
      "type": "VEC3"
    },
    {
      "bufferView": 3,
      "byteOffset": 759440,
      "componentType": 5126,
      "count": 6644,
      "max": [1.0, 1.0, 0.7077710032463074, 1.0],
      "min": [
        -0.7211424112319946, -0.7052468657493591, -0.8976680636405945, -1.0
      ],
      "type": "VEC4"
    },
    {
      "bufferView": 1,
      "byteOffset": 379720,
      "componentType": 5126,
      "count": 6644,
      "max": [0.9937430024147034, 0.9960939884185791],
      "min": [0.0039059999398887157, 0.0039059999398887157],
      "type": "VEC2"
    },
    {
      "bufferView": 0,
      "byteOffset": 247296,
      "componentType": 5125,
      "count": 12924,
      "type": "SCALAR"
    },
    {
      "bufferView": 2,
      "byteOffset": 1298616,
      "componentType": 5126,
      "count": 5404,
      "max": [0.6913210153579712, -0.03338700160384178, 0.16409699618816376],
      "min": [-0.4712330102920532, -0.1896360069513321, -0.6974520087242126],
      "type": "VEC3"
    },
    {
      "bufferView": 2,
      "byteOffset": 1363464,
      "componentType": 5126,
      "count": 5404,
      "max": [1.0, 1.0, 1.0],
      "min": [-1.0, -1.0, -1.0],
      "type": "VEC3"
    },
    {
      "bufferView": 3,
      "byteOffset": 865744,
      "componentType": 5126,
      "count": 5404,
      "max": [1.0, 1.0, 0.7638826966285706, 1.0],
      "min": [-0.6426510214805603, -1.0, -0.5664975047111511, -1.0],
      "type": "VEC4"
    },
    {
      "bufferView": 1,
      "byteOffset": 432872,
      "componentType": 5126,
      "count": 5404,
      "max": [0.9960939884185791, 0.9949049949645996],
      "min": [0.0039059999398887157, 0.0039059999398887157],
      "type": "VEC2"
    },
    {
      "bufferView": 0,
      "byteOffset": 298992,
      "componentType": 5125,
      "count": 14634,
      "type": "SCALAR"
    },
    {
      "bufferView": 2,
      "byteOffset": 1428312,
      "componentType": 5126,
      "count": 1245,
      "max": [1.1528669595718384, -0.1825910061597824, 0.8489189743995667],
      "min": [-1.0943820476531982, -0.18467199802398682, -1.0600190162658691],
      "type": "VEC3"
    },
    {
      "bufferView": 2,
      "byteOffset": 1443252,
      "componentType": 5126,
      "count": 1245,
      "max": [0.015125005505979061, 0.9999998807907104, 0.0162579994648695],
      "min": [-0.013998995535075665, 0.9998670220375061, -0.01567700505256653],
      "type": "VEC3"
    },
    {
      "bufferView": 3,
      "byteOffset": 952208,
      "componentType": 5126,
      "count": 1245,
      "max": [
        -0.8413783311843872, 0.010439274832606316, 0.540446400642395, 1.0
      ],
      "min": [
        -0.8552047610282898, -0.009571587666869164, 0.5182902812957764, 1.0
      ],
      "type": "VEC4"
    },
    {
      "bufferView": 1,
      "byteOffset": 476104,
      "componentType": 5126,
      "count": 1245,
      "max": [0.9980469942092896, 0.9286199808120728],
      "min": [0.0019529999699443579, 0.0019529999699443579],
      "type": "VEC2"
    },
    {
      "bufferView": 0,
      "byteOffset": 357528,
      "componentType": 5125,
      "count": 2064,
      "type": "SCALAR"
    }
  ],
  "asset": {
    "extras": {
      "author": "Andy Woodhead (https://sketchfab.com/Andywoodhead)",
      "license": "CC-BY-4.0 (http://creativecommons.org/licenses/by/4.0/)",
      "source": "https://sketchfab.com/3d-models/preceptory-and-dower-house-game-asset-50d31c70e44b4000b17d81ff0fbcdf98",
      "title": "Preceptory and Dower House - game asset"
    },
    "generator": "Sketchfab-15.15.0",
    "version": "2.0"
  },
  "bufferViews": [
    {
      "buffer": 0,
      "byteLength": 365784,
      "name": "floatBufferViews",
      "target": 34963
    },
    {
      "buffer": 0,
      "byteLength": 486064,
      "byteOffset": 365784,
      "byteStride": 8,
      "name": "floatBufferViews",
      "target": 34962
    },
    {
      "buffer": 0,
      "byteLength": 1458192,
      "byteOffset": 851848,
      "byteStride": 12,
      "name": "floatBufferViews",
      "target": 34962
    },
    {
      "buffer": 0,
      "byteLength": 972128,
      "byteOffset": 2310040,
      "byteStride": 16,
      "name": "floatBufferViews",
      "target": 34962
    }
  ],
  "buffers": [
    {
      "byteLength": 3282168,
      "uri": "scene.bin"
    }
  ],
  "images": [
    {
      "uri": "textures/Ground_baseColor.png"
    },
    {
      "uri": "textures/Ground_metallicRoughness.png"
    },
    {
      "uri": "textures/Ground_normal.png"
    },
    {
      "uri": "textures/Walls_baseColor.jpeg"
    },
    {
      "uri": "textures/Walls_metallicRoughness.png"
    },
    {
      "uri": "textures/Walls_normal.png"
    },
    {
      "uri": "textures/Chapel_baseColor.jpeg"
    },
    {
      "uri": "textures/Chapel_metallicRoughness.png"
    },
    {
      "uri": "textures/Chapel_normal.png"
    },
    {
      "uri": "textures/House_baseColor.jpeg"
    },
    {
      "uri": "textures/House_metallicRoughness.png"
    },
    {
      "uri": "textures/House_normal.png"
    },
    {
      "uri": "textures/Cart_baseColor.jpeg"
    },
    {
      "uri": "textures/Cart_metallicRoughness.png"
    },
    {
      "uri": "textures/Cart_normal.png"
    },
    {
      "uri": "textures/Barrel_baseColor.jpeg"
    },
    {
      "uri": "textures/Barrel_metallicRoughness.png"
    },
    {
      "uri": "textures/Barrel_normal.png"
    },
    {
      "uri": "textures/Logs_baseColor.jpeg"
    },
    {
      "uri": "textures/Logs_metallicRoughness.png"
    },
    {
      "uri": "textures/Logs_normal.png"
    },
    {
      "uri": "textures/Bench_baseColor.jpeg"
    },
    {
      "uri": "textures/Bench_metallicRoughness.png"
    },
    {
      "uri": "textures/Bench_normal.png"
    }
  ],
  "materials": [
    {
      "alphaMode": "BLEND",
      "doubleSided": true,
      "name": "Ground",
      "normalTexture": {
        "index": 2
      },
      "occlusionTexture": {
        "index": 1
      },
      "pbrMetallicRoughness": {
        "baseColorTexture": {
          "index": 0
        },
        "metallicRoughnessTexture": {
          "index": 1
        }
      }
    },
    {
      "doubleSided": true,
      "name": "Walls",
      "normalTexture": {
        "index": 5
      },
      "occlusionTexture": {
        "index": 4
      },
      "pbrMetallicRoughness": {
        "baseColorTexture": {
          "index": 3
        },
        "metallicRoughnessTexture": {
          "index": 4
        }
      }
    },
    {
      "doubleSided": true,
      "name": "Chapel",
      "normalTexture": {
        "index": 8
      },
      "occlusionTexture": {
        "index": 7
      },
      "pbrMetallicRoughness": {
        "baseColorTexture": {
          "index": 6
        },
        "metallicRoughnessTexture": {
          "index": 7
        }
      }
    },
    {
      "doubleSided": true,
      "name": "House",
      "normalTexture": {
        "index": 11
      },
      "occlusionTexture": {
        "index": 10
      },
      "pbrMetallicRoughness": {
        "baseColorTexture": {
          "index": 9
        },
        "metallicRoughnessTexture": {
          "index": 10
        }
      }
    },
    {
      "doubleSided": true,
      "name": "Cart",
      "normalTexture": {
        "index": 14
      },
      "occlusionTexture": {
        "index": 13
      },
      "pbrMetallicRoughness": {
        "baseColorTexture": {
          "index": 12
        },
        "metallicRoughnessTexture": {
          "index": 13
        }
      }
    },
    {
      "doubleSided": true,
      "name": "Barrel",
      "normalTexture": {
        "index": 17
      },
      "occlusionTexture": {
        "index": 16
      },
      "pbrMetallicRoughness": {
        "baseColorTexture": {
          "index": 15
        },
        "metallicRoughnessTexture": {
          "index": 16
        }
      }
    },
    {
      "doubleSided": true,
      "name": "Logs",
      "normalTexture": {
        "index": 20
      },
      "occlusionTexture": {
        "index": 19
      },
      "pbrMetallicRoughness": {
        "baseColorTexture": {
          "index": 18
        },
        "metallicRoughnessTexture": {
          "index": 19
        }
      }
    },
    {
      "doubleSided": true,
      "name": "Bench",
      "normalTexture": {
        "index": 23
      },
      "occlusionTexture": {
        "index": 22
      },
      "pbrMetallicRoughness": {
        "baseColorTexture": {
          "index": 21
        },
        "metallicRoughnessTexture": {
          "index": 22
        }
      }
    }
  ],
  "meshes": [
    {
      "name": "defaultMaterial",
      "primitives": [
        {
          "attributes": {
            "NORMAL": 1,
            "POSITION": 0,
            "TANGENT": 2,
            "TEXCOORD_0": 3
          },
          "indices": 4,
          "material": 7,
          "mode": 4
        }
      ]
    },
    {
      "name": "defaultMaterial",
      "primitives": [
        {
          "attributes": {
            "NORMAL": 6,
            "POSITION": 5,
            "TANGENT": 7,
            "TEXCOORD_0": 8
          },
          "indices": 9,
          "material": 6,
          "mode": 4
        }
      ]
    },
    {
      "name": "defaultMaterial",
      "primitives": [
        {
          "attributes": {
            "NORMAL": 11,
            "POSITION": 10,
            "TANGENT": 12,
            "TEXCOORD_0": 13
          },
          "indices": 14,
          "material": 5,
          "mode": 4
        }
      ]
    },
    {
      "name": "defaultMaterial",
      "primitives": [
        {
          "attributes": {
            "NORMAL": 16,
            "POSITION": 15,
            "TANGENT": 17,
            "TEXCOORD_0": 18
          },
          "indices": 19,
          "material": 4,
          "mode": 4
        }
      ]
    },
    {
      "name": "defaultMaterial",
      "primitives": [
        {
          "attributes": {
            "NORMAL": 21,
            "POSITION": 20,
            "TANGENT": 22,
            "TEXCOORD_0": 23
          },
          "indices": 24,
          "material": 3,
          "mode": 4
        }
      ]
    },
    {
      "name": "defaultMaterial",
      "primitives": [
        {
          "attributes": {
            "NORMAL": 26,
            "POSITION": 25,
            "TANGENT": 27,
            "TEXCOORD_0": 28
          },
          "indices": 29,
          "material": 2,
          "mode": 4
        }
      ]
    },
    {
      "name": "defaultMaterial",
      "primitives": [
        {
          "attributes": {
            "NORMAL": 31,
            "POSITION": 30,
            "TANGENT": 32,
            "TEXCOORD_0": 33
          },
          "indices": 34,
          "material": 1,
          "mode": 4
        }
      ]
    },
    {
      "name": "defaultMaterial",
      "primitives": [
        {
          "attributes": {
            "NORMAL": 36,
            "POSITION": 35,
            "TANGENT": 37,
            "TEXCOORD_0": 38
          },
          "indices": 39,
          "material": 0,
          "mode": 4
        }
      ]
    }
  ],
  "nodes": [
    {
      "children": [1],
      "matrix": [
        1.0, 0.0, 0.0, 0.0, 0.0, 2.220446049250313e-16, -1.0, 0.0, 0.0, 1.0,
        2.220446049250313e-16, 0.0, 0.0, 0.0, 0.0, 1.0
      ],
      "name": "Sketchfab_model"
    },
    {
      "children": [2, 4, 6, 8, 10, 12, 14, 16],
      "matrix": [
        1.0, 0.0, 0.0, 0.0, 0.0, -4.371139006309477e-8, 0.999999999999999, 0.0,
        0.0, -0.999999999999999, -4.371139006309477e-8, 0.0, 0.0, 0.0, 0.0, 1.0
      ],
      "name": "Collada visual scene group"
    },
    {
      "children": [3],
      "name": "Bench"
    },
    {
      "mesh": 0,
      "name": "defaultMaterial"
    },
    {
      "children": [5],
      "name": "Logs"
    },
    {
      "mesh": 1,
      "name": "defaultMaterial"
    },
    {
      "children": [7],
      "name": "Barrel"
    },
    {
      "mesh": 2,
      "name": "defaultMaterial"
    },
    {
      "children": [9],
      "name": "Cart"
    },
    {
      "mesh": 3,
      "name": "defaultMaterial"
    },
    {
      "children": [11],
      "name": "House"
    },
    {
      "mesh": 4,
      "name": "defaultMaterial"
    },
    {
      "children": [13],
      "name": "Chapel"
    },
    {
      "mesh": 5,
      "name": "defaultMaterial"
    },
    {
      "children": [15],
      "name": "Walls"
    },
    {
      "mesh": 6,
      "name": "defaultMaterial"
    },
    {
      "children": [17],
      "name": "Ground"
    },
    {
      "mesh": 7,
      "name": "defaultMaterial"
    }
  ],
  "samplers": [
    {
      "magFilter": 9729,
      "minFilter": 9987,
      "wrapS": 10497,
      "wrapT": 10497
    }
  ],
  "scene": 0,
  "scenes": [
    {
      "name": "Sketchfab_Scene",
      "nodes": [0]
    }
  ],
  "textures": [
    {
      "sampler": 0,
      "source": 0
    },
    {
      "sampler": 0,
      "source": 1
    },
    {
      "sampler": 0,
      "source": 2
    },
    {
      "sampler": 0,
      "source": 3
    },
    {
      "sampler": 0,
      "source": 4
    },
    {
      "sampler": 0,
      "source": 5
    },
    {
      "sampler": 0,
      "source": 6
    },
    {
      "sampler": 0,
      "source": 7
    },
    {
      "sampler": 0,
      "source": 8
    },
    {
      "sampler": 0,
      "source": 9
    },
    {
      "sampler": 0,
      "source": 10
    },
    {
      "sampler": 0,
      "source": 11
    },
    {
      "sampler": 0,
      "source": 12
    },
    {
      "sampler": 0,
      "source": 13
    },
    {
      "sampler": 0,
      "source": 14
    },
    {
      "sampler": 0,
      "source": 15
    },
    {
      "sampler": 0,
      "source": 16
    },
    {
      "sampler": 0,
      "source": 17
    },
    {
      "sampler": 0,
      "source": 18
    },
    {
      "sampler": 0,
      "source": 19
    },
    {
      "sampler": 0,
      "source": 20
    },
    {
      "sampler": 0,
      "source": 21
    },
    {
      "sampler": 0,
      "source": 22
    },
    {
      "sampler": 0,
      "source": 23
    }
  ]
}
